<svg width="52" height="52" viewBox="0 0 52 52" fill="none" xmlns="http://www.w3.org/2000/svg">
<path id="Game" fill-rule="evenodd" clip-rule="evenodd" d="M18.1632 2.05088C18.1632 1.03968 17.3338 0.199997 16.2816 0.199997H16.279C15.2499 0.199997 14.3949 1.03968 14.3949 2.05088C14.3949 4.81312 16.7066 7.08128 19.5456 7.08128H22.0314C23.7389 7.08128 25.1725 8.46112 25.1725 10.1635V10.5808C21.7549 10.5808 18.391 10.632 15.0989 10.6832C6.35648 10.6832 0 16.8963 0 25.48V36.5034C0 45.087 6.35648 51.3002 15.0733 51.3002C18.5651 51.3744 22.1082 51.4 25.6256 51.4C29.143 51.4 32.6349 51.377 36.1267 51.3002C44.8435 51.3002 51.2 45.087 51.2 36.5034V25.4774C51.2 16.8963 44.8435 10.6806 36.1267 10.6806C35.2879 10.6726 34.4519 10.6615 33.6179 10.6504C32.0542 10.6296 30.4977 10.609 28.9434 10.609V10.1405C28.9178 6.43872 25.8253 3.40768 22.0314 3.38208H19.5456C18.793 3.38208 18.1632 2.79072 18.1632 2.05088ZM16.8111 25.2229C17.1646 24.8756 17.642 24.6834 18.1376 24.6889H18.1402C19.1695 24.686 20.0101 25.5106 20.0269 26.5398V29.1305H22.6637C23.691 29.1289 24.5297 29.9517 24.5478 30.9788C24.5445 31.4749 24.3435 31.9491 23.9893 32.2966C23.6352 32.644 23.1572 32.8358 22.6611 32.8297H20.0243V35.4435C20.0062 36.4706 19.1675 37.2933 18.1402 37.2918C17.0854 37.2918 16.256 36.4547 16.256 35.4409V32.8297H13.5936C12.5645 32.8297 11.7094 32.0156 11.7094 30.9788C11.7276 29.9517 12.5663 29.1289 13.5936 29.1305H16.2534V26.5398C16.2568 26.0441 16.4575 25.5703 16.8111 25.2229ZM37.8854 33.4441H37.632C36.6105 33.4441 35.7824 34.2722 35.7824 35.2937C35.7824 36.3153 36.6105 37.1433 37.632 37.1433H37.8829C38.378 37.1488 38.855 36.957 39.2085 36.6102C39.562 36.2634 39.763 35.7902 39.767 35.295C39.7489 34.2679 38.9102 33.4452 37.8829 33.4467L37.8854 33.4441ZM33.3363 24.9629H33.5872C34.6155 24.9613 35.4546 25.7856 35.4714 26.8138C35.4673 27.3089 35.2663 27.7822 34.9128 28.1289C34.5593 28.4757 34.0824 28.6675 33.5872 28.6621H33.3363C32.3148 28.6621 31.4867 27.834 31.4867 26.8125C31.4867 25.791 32.3148 24.9629 33.3363 24.9629Z" fill="url(#paint0_linear_568_364)"/>
<defs>
<linearGradient id="paint0_linear_568_364" x1="28.8797" y1="-18.6375" x2="-8.79531" y2="26.0031" gradientUnits="userSpaceOnUse">
<stop stop-color="#5C8FFF"/>
<stop offset="1" stop-color="#C14BFF"/>
</linearGradient>
</defs>
</svg>
